<svg width="36" height="36" viewBox="0 0 36 36" fill="none" xmlns="http://www.w3.org/2000/svg">
<path d="M5.04 26.136C4.824 26.136 4.68 26.064 4.536 25.92C1.584 23.04 0 19.224 0 15.12C0 6.768 6.768 0 15.12 0C19.224 0 23.04 1.584 25.92 4.536C26.208 4.824 26.208 5.256 25.92 5.544C25.632 5.832 25.2 5.832 24.912 5.544C22.32 2.88 18.792 1.44 15.12 1.44C7.56 1.44 1.44 7.56 1.44 15.12C1.44 18.792 2.88 22.32 5.544 24.912C5.832 25.2 5.832 25.632 5.544 25.92C5.4 26.064 5.256 26.136 5.04 26.136Z" fill="#F27F0C"/>
<path d="M30.96 5.75977H29.232C28.512 5.75977 27.864 6.19177 27.648 6.91177L25.488 13.7518C25.272 14.3278 25.488 14.9758 25.92 15.4078L28.44 17.9278C28.512 17.9998 28.512 18.0718 28.512 18.2158C27.936 19.2958 26.496 21.3838 23.976 23.9758C21.456 26.4958 19.296 27.9358 18.216 28.5118C18.144 28.5838 18 28.5118 17.928 28.4398L15.408 25.9198C14.976 25.4878 14.328 25.3438 13.752 25.4878L6.91201 27.6478C6.19201 27.8638 5.76001 28.5118 5.76001 29.2318V30.9598C5.76001 32.3998 10.08 35.9998 12.96 35.9998C14.616 35.9998 20.736 35.4238 28.08 28.0798C35.424 20.7358 36 14.6158 36 12.9598C36 10.1518 32.472 5.75977 30.96 5.75977ZM27.072 26.9998C20.088 33.9838 14.472 34.5598 12.96 34.5598C10.8 34.5598 7.48801 31.7518 7.20001 30.9598V29.3038C7.20001 29.2318 7.27201 29.1598 7.34401 29.0878L14.184 26.9278C14.256 26.9278 14.328 26.9278 14.4 26.9998L16.92 29.5198C17.424 30.0238 18.288 30.1678 18.936 29.8078C20.016 29.1598 22.32 27.7198 24.984 25.0558C27.648 22.3918 29.088 20.0878 29.736 19.0078C30.096 18.3598 30.024 17.5678 29.448 16.9918L26.928 14.3998C26.856 14.3278 26.856 14.2558 26.856 14.1838L29.016 7.34377C29.016 7.27177 29.16 7.19977 29.232 7.19977H30.888C31.68 7.48777 34.488 10.7278 34.488 12.9598C34.56 14.4718 33.984 20.0878 27.072 26.9998Z" fill="#F27F0C"/>
<path d="M12.96 18.7201H7.92001C7.48801 18.7201 7.20001 18.4321 7.20001 18.0001C7.20001 16.3441 8.71201 15.1201 10.08 14.0401C11.16 13.2481 12.24 12.3841 12.24 11.5921C12.24 10.2961 11.232 10.0801 10.584 10.0801C9.64801 10.0801 8.85601 10.5121 8.56801 11.0881C8.42401 11.4481 7.99201 11.5921 7.63201 11.4481C7.27201 11.3041 7.12801 10.8721 7.27201 10.5121C7.84801 9.36014 9.07201 8.64014 10.584 8.64014C12.096 8.64014 13.68 9.57614 13.68 11.5921C13.68 13.0321 12.312 14.1121 11.016 15.1921C10.152 15.8401 9.28801 16.5601 8.85601 17.2801H12.96C13.392 17.2801 13.68 17.5681 13.68 18.0001C13.68 18.4321 13.392 18.7201 12.96 18.7201Z" fill="#F27F0C"/>
<path d="M19.44 18.72C19.008 18.72 18.72 18.432 18.72 18V16.56H15.12C14.832 16.56 14.616 16.416 14.472 16.2C14.328 15.984 14.328 15.696 14.472 15.48L18.792 9C18.936 8.712 19.296 8.64 19.584 8.712C19.872 8.784 20.088 9.072 20.088 9.432V15.192H20.808C21.24 15.192 21.528 15.48 21.528 15.912C21.528 16.344 21.24 16.632 20.808 16.632H20.088V18.072C20.16 18.432 19.872 18.72 19.44 18.72ZM16.488 15.12H18.72V11.736L16.488 15.12Z" fill="#F27F0C"/>
</svg>
