<svg width="34" height="34" viewBox="0 0 34 34" fill="none" xmlns="http://www.w3.org/2000/svg">
<path d="M24.6164 33.6667C25.059 33.6692 25.4978 33.5836 25.907 33.4147C26.3162 33.2459 26.6877 32.9973 26.9997 32.6833L31.5164 28.1667C31.8268 27.8544 32.0011 27.432 32.0011 26.9917C32.0011 26.5513 31.8268 26.1289 31.5164 25.8167L24.8497 19.15C24.5375 18.8396 24.115 18.6653 23.6747 18.6653C23.2344 18.6653 22.812 18.8396 22.4997 19.15L19.8331 21.8C17.9868 21.3077 16.2769 20.4015 14.8331 19.15C13.5849 17.7038 12.6791 15.9947 12.1831 14.15L14.8331 11.4833C15.1435 11.1711 15.3177 10.7486 15.3177 10.3083C15.3177 9.86802 15.1435 9.4456 14.8331 9.13333L8.1664 2.46666C7.85413 2.15624 7.43171 1.982 6.9914 1.982C6.55109 1.982 6.12867 2.15624 5.8164 2.46666L1.3164 6.99999C1.00245 7.31206 0.753805 7.68354 0.584974 8.09274C0.416143 8.50194 0.330507 8.94067 0.333063 9.38332C0.484268 15.7871 3.04319 21.8988 7.49973 26.5C12.1009 30.9565 18.2126 33.5155 24.6164 33.6667ZM6.99973 6.01666L11.3164 10.3333L9.1664 12.4833C8.96276 12.6741 8.81028 12.9129 8.72292 13.1779C8.63556 13.4429 8.61613 13.7255 8.6664 14C9.28934 16.7839 10.6082 19.3644 12.4997 21.5C14.6337 23.3939 17.2148 24.7131 19.9997 25.3333C20.27 25.3898 20.5501 25.3783 20.8149 25.2997C21.0796 25.2212 21.3207 25.0781 21.5164 24.8833L23.6664 22.6833L27.9831 27L24.6497 30.3333C19.1226 30.191 13.8489 27.9852 9.8664 24.15C6.02125 20.1658 3.80908 14.8852 3.6664 9.34999L6.99973 6.01666ZM30.3331 15.3333H33.6664C33.7096 13.3517 33.3512 11.3818 32.6126 9.54234C31.8741 7.70292 30.7708 6.03207 29.3692 4.63048C27.9677 3.2289 26.2968 2.1256 24.4574 1.38708C22.618 0.648559 20.6481 0.290106 18.6664 0.333325V3.66666C20.2129 3.61316 21.7539 3.87834 23.1936 4.44571C24.6332 5.01309 25.9408 5.87052 27.035 6.96473C28.1292 8.05893 28.9866 9.3665 29.554 10.8062C30.1214 12.2458 30.3866 13.7868 30.3331 15.3333Z" fill="#F7AD19"/>
</svg>
