<svg width="45" height="36" viewBox="0 0 45 36" fill="none" xmlns="http://www.w3.org/2000/svg">
<path d="M7.3125 1.56942e-08H37.6875C39.5553 -0.00012228 41.3524 0.714496 42.71 1.99726C44.0677 3.28003 44.883 5.03369 44.9888 6.8985L45 7.3125V28.6875C45.0001 30.5553 44.2855 32.3524 43.0027 33.71C41.72 35.0677 39.9663 35.883 38.1015 35.9888L37.6875 36H7.3125C5.44469 36.0001 3.64764 35.2855 2.28998 34.0027C0.932325 32.72 0.116997 30.9663 0.0112503 29.1015L1.56942e-08 28.6875V7.3125C-0.00012228 5.44469 0.714497 3.64764 1.99726 2.28998C3.28003 0.932326 5.03369 0.116997 6.8985 0.0112503L7.3125 1.56942e-08H37.6875H7.3125ZM41.625 12.0893L23.2875 21.7418C23.0804 21.8511 22.8529 21.9162 22.6193 21.9329C22.3857 21.9495 22.1512 21.9174 21.9307 21.8385L21.7148 21.744L3.375 12.0915V28.6875C3.37504 29.6757 3.74663 30.6277 4.41603 31.3546C5.08542 32.0815 6.00367 32.5302 6.9885 32.6115L7.3125 32.625H37.6875C38.676 32.6249 39.6284 32.253 40.3553 31.5831C41.0823 30.9133 41.5307 29.9945 41.6115 29.0092L41.625 28.6875V12.0893ZM37.6875 3.375H7.3125C6.32432 3.37504 5.37228 3.74663 4.64537 4.41603C3.91846 5.08542 3.46981 6.00367 3.3885 6.9885L3.375 7.3125V8.27775L22.5 18.342L41.625 8.2755V7.3125C41.6249 6.32397 41.253 5.37163 40.5831 4.64466C39.9133 3.91769 38.9945 3.46928 38.0093 3.3885L37.6875 3.375Z" fill="#F7AD19"/>
</svg>
