<svg width="48" height="37" viewBox="0 0 48 37" fill="none" xmlns="http://www.w3.org/2000/svg">
<path d="M47.5862 19.7333L42.5379 10.9356C42.1241 10.2778 41.2966 9.86667 40.5517 9.86667H33.1035V0.822222C33.1035 0.328889 32.7724 0 32.2759 0H0.827586C0.331034 0 0 0.328889 0 0.822222V30.4222C0 31.82 1.07586 32.8889 2.48276 32.8889H3.3931C3.8069 35.1911 5.7931 37 8.27586 37C10.7586 37 12.7448 35.1911 13.1586 32.8889H34.8414C35.2552 35.1911 37.2414 37 39.7241 37C42.2069 37 44.1931 35.1911 44.6069 32.8889H45.5172C46.9241 32.8889 48 31.82 48 30.4222V21.0489C48 20.5556 47.8345 20.0622 47.5862 19.7333ZM41.131 11.7578L45.6828 19.7333H37.2414C36.7448 19.7333 36.4138 19.4044 36.4138 18.9111V11.5111H40.5517C40.8 11.5111 41.0483 11.6756 41.131 11.7578ZM1.65517 11.5111H31.4483V23.0222H1.65517V11.5111ZM1.65517 9.86667V8.22222H31.4483V9.86667H1.65517ZM31.4483 1.64444V6.57778H1.65517V1.64444H31.4483ZM8.27586 35.3556C6.45517 35.3556 4.96552 33.8756 4.96552 32.0667C4.96552 30.2578 6.45517 28.7778 8.27586 28.7778C10.0966 28.7778 11.5862 30.2578 11.5862 32.0667C11.5862 33.8756 10.0966 35.3556 8.27586 35.3556ZM39.7241 35.3556C37.9035 35.3556 36.4138 33.8756 36.4138 32.0667C36.4138 30.2578 37.9035 28.7778 39.7241 28.7778C41.5448 28.7778 43.0345 30.2578 43.0345 32.0667C43.0345 33.8756 41.5448 35.3556 39.7241 35.3556ZM46.3448 30.4222C46.3448 30.9156 46.0138 31.2444 45.5172 31.2444H44.6069C44.1931 28.9422 42.2069 27.1333 39.7241 27.1333C37.2414 27.1333 35.2552 28.9422 34.8414 31.2444H13.1586C12.7448 28.9422 10.7586 27.1333 8.27586 27.1333C5.7931 27.1333 3.8069 28.9422 3.3931 31.2444H2.48276C1.98621 31.2444 1.65517 30.9156 1.65517 30.4222V24.6667H32.2759C32.7724 24.6667 33.1035 24.3378 33.1035 23.8444V11.5111H34.7586V18.9111C34.7586 20.3089 35.8345 21.3778 37.2414 21.3778H46.3448V30.4222Z" fill="#F27F0C"/>
</svg>
