<svg width="107" height="79" viewBox="0 0 107 79" fill="none" xmlns="http://www.w3.org/2000/svg">
<path d="M47.1382 -5.23329e-06L47.1382 4.96018C32.2333 13.5498 23.0238 24.438 19.5096 37.6248C23.2661 35.2052 26.7803 33.8744 29.8097 33.8744C35.0204 33.8744 39.3828 35.9311 42.8969 40.1654C46.4111 44.2787 48.2288 49.4809 48.2288 55.4089C48.2288 62.0628 45.9264 67.6279 41.2005 72.2251C36.5957 76.7014 30.7792 79 23.9932 79C17.2072 79 11.3907 76.0965 6.90714 70.4104C2.30238 64.6034 -5.74679e-06 57.4655 -4.99587e-06 48.876C-3.93823e-06 36.7779 4.60476 26.0107 13.8143 16.4533C23.0238 6.89586 34.1721 1.33077 47.1382 -5.23329e-06ZM105.909 -9.53433e-08L105.909 4.96019C91.0045 13.5498 81.795 24.438 78.2809 37.6248C82.0374 35.2052 85.5515 33.8744 88.7022 33.8744C93.7916 33.8744 98.154 35.9311 101.668 40.1654C105.182 44.2787 107 49.3599 107 55.4089C107 62.0628 104.698 67.7489 99.9717 72.2251C95.3669 76.7014 89.6716 79 82.7644 79C75.8573 79 70.1619 76.0965 65.5572 70.4104C60.9524 64.6034 58.6501 57.4655 58.6501 48.876C58.6501 36.7779 63.2548 26.0107 72.4643 16.4533C81.795 6.89586 92.9434 1.33078 105.909 -9.53433e-08Z" fill="#9FE7F5" fill-opacity="0.2"/>
</svg>
