<svg width="107" height="79" viewBox="0 0 107 79" fill="none" xmlns="http://www.w3.org/2000/svg">
<path d="M59.8618 79V74.0398C74.7667 65.4502 83.9762 54.562 87.4904 41.3752C83.7339 43.7948 80.2197 45.1256 77.1903 45.1256C71.9796 45.1256 67.6172 43.0689 64.1031 38.8346C60.5889 34.7213 58.7712 29.5191 58.7712 23.5911C58.7712 16.9372 61.0736 11.3721 65.7995 6.77488C70.4043 2.29862 76.2208 0 83.0068 0C89.7928 0 95.6093 2.90352 100.093 8.58959C104.698 14.3966 107 21.5345 107 30.124C107 42.222 102.395 52.9893 93.1857 62.5467C83.9762 72.1041 72.8279 77.6692 59.8618 79ZM1.0906 79V74.0398C15.9955 65.4502 25.205 54.562 28.7191 41.3752C24.9626 43.7948 21.4485 45.1256 18.2978 45.1256C13.2084 45.1256 8.84598 43.0689 5.33182 38.8346C1.81767 34.7213 0 29.6401 0 23.5911C0 16.9372 2.30238 11.2511 7.02831 6.77488C11.6331 2.29862 17.3284 0 24.2356 0C31.1427 0 36.8381 2.90352 41.4428 8.58959C46.0476 14.3966 48.3499 21.5345 48.3499 30.124C48.3499 42.222 43.7452 52.9893 34.5357 62.5467C25.205 72.1041 14.0566 77.6692 1.0906 79Z" fill="#9FE7F5" fill-opacity="0.2"/>
</svg>
