<svg width="20" height="13" viewBox="0 0 20 13" fill="none" xmlns="http://www.w3.org/2000/svg">
<path d="M17.545 9.077V6.656H19.967V4.841H17.545V2.42H15.73V4.841H13.309V6.656H15.73V9.077H17.545ZM6.052 2.354C7.185 2.354 7.948 2.838 8.382 3.25L10.104 1.58C9.056 0.6 7.689 2.7646e-07 6.052 2.7646e-07C2.714 -0.000999724 0 2.711 0 6.052C0 9.393 2.714 12.105 6.052 12.105C9.545 12.105 11.864 9.648 11.864 6.192C11.864 5.689 11.8 5.332 11.711 4.952H6.049V7.208H9.381C9.223 8.159 8.37 9.764 6.052 9.764C4.049 9.764 2.415 8.099 2.415 6.06C2.415 4.018 4.049 2.354 6.052 2.354Z" fill="white"/>
</svg>
