<svg width="14" height="14" viewBox="0 0 14 14" fill="none" xmlns="http://www.w3.org/2000/svg">
<path d="M10.3333 0.957031H3.66667C2.95942 0.957031 2.28115 1.23494 1.78105 1.72961C1.28095 2.22429 1 2.89521 1 3.59479V10.1892C1 10.8888 1.28095 11.5597 1.78105 12.0544C2.28115 12.549 2.95942 12.827 3.66667 12.827H10.3333C11.0406 12.827 11.7189 12.549 12.219 12.0544C12.719 11.5597 13 10.8888 13 10.1892V3.59479C13 2.89521 12.719 2.22429 12.219 1.72961C11.7189 1.23494 11.0406 0.957031 10.3333 0.957031Z" stroke="white" stroke-width="1.5" stroke-linejoin="round"/>
<path d="M7.00001 9.63115C7.73445 9.63115 8.43882 9.34254 8.95815 8.8288C9.47748 8.31506 9.76924 7.61828 9.76924 6.89175C9.76924 6.16521 9.47748 5.46843 8.95815 4.9547C8.43882 4.44096 7.73445 4.15234 7.00001 4.15234C6.26556 4.15234 5.56119 4.44096 5.04186 4.9547C4.52253 5.46843 4.23077 6.16521 4.23077 6.89175C4.23077 7.61828 4.52253 8.31506 5.04186 8.8288C5.56119 9.34254 6.26556 9.63115 7.00001 9.63115V9.63115Z" stroke="white" stroke-width="1.5" stroke-linejoin="round"/>
<path d="M10.4615 4.15195C10.6451 4.15195 10.8212 4.07985 10.9511 3.9515C11.0809 3.82316 11.1538 3.64909 11.1538 3.46758C11.1538 3.28607 11.0809 3.112 10.9511 2.98365C10.8212 2.85531 10.6451 2.7832 10.4615 2.7832C10.2779 2.7832 10.1018 2.85531 9.972 2.98365C9.84216 3.112 9.76923 3.28607 9.76923 3.46758C9.76923 3.64909 9.84216 3.82316 9.972 3.9515C10.1018 4.07985 10.2779 4.15195 10.4615 4.15195Z" fill="white"/>
</svg>
