<svg width="24" height="24" viewBox="0 0 24 24" fill="none" xmlns="http://www.w3.org/2000/svg">
<path d="M23.4826 0.510427C23.4878 0.508167 23.492 0.507479 23.4947 0.507349L23.496 0.508328L23.5025 0.512717C23.503 0.5142 23.5039 0.517753 23.5036 0.523398L20.6039 20.6891L20.6036 20.6908C20.6034 20.6929 20.603 20.6944 20.6026 20.6955C20.6011 20.6962 20.5996 20.6969 20.598 20.6974C20.5977 20.6975 20.5975 20.6976 20.5972 20.6977L14.6552 18.5383L14.3151 18.4147L14.0914 18.6992L10.3139 23.5028C10.3113 23.5015 10.3094 23.5002 10.3079 23.499C10.3065 23.4979 10.3057 23.497 10.3053 23.4966L10.305 23.4957L7.33879 16.0356L7.26125 15.8406L7.06775 15.7594L0.507537 13.0045L0.507225 13.0044C0.506299 13.004 0.505872 13.0037 0.505576 13.0035C0.505207 13.0032 0.50452 13.0025 0.503681 13.0013C0.502016 12.9989 0.499809 12.9943 0.499308 12.9872C0.499293 12.9869 0.49928 12.9867 0.499268 12.9865L23.4826 0.510427ZM23.4826 0.510427L0.516186 12.9645L23.4826 0.510427ZM10.3057 23.4975L10.3057 23.4975L10.3057 23.4975ZM20.63 3.19566L20.0486 2.39237L1.45048 12.475L0.53526 12.9712L1.49467 13.3754L6.96151 15.6784L7.26172 15.8049L7.4987 15.5813L20.63 3.19566ZM11.6553 17.3121L11.0425 17.0585L10.9674 17.7175L10.7905 19.2693L11.0403 17.0416C11.0403 17.0412 11.0404 17.0408 11.0404 17.0404C11.0415 17.0328 11.0444 17.0248 11.0485 17.0179L19.8634 5.32577L19.121 4.66114L7.52692 15.6033L7.27978 15.8365L7.40569 16.1522L9.58161 21.6067L10.5388 21.4777L10.5127 21.7064L10.3132 23.457L11.4025 22.0722L13.8815 18.9207L14.2896 18.4019L13.6796 18.1495L11.6553 17.3121ZM20.0013 20.4454L20.5845 20.6667L20.6735 20.0493L23.2067 2.47351L22.3126 2.10114L11.4438 16.5144L11.0426 17.0465L11.6657 17.2829L20.0013 20.4454Z" fill="white" stroke="white"/>
</svg>
