<svg width="20" height="22" viewBox="0 0 20 22" fill="none" xmlns="http://www.w3.org/2000/svg">
<path d="M12.1492 4.82261C12.9909 5.00472 13.7644 5.46123 14.3708 6.1337C14.9772 6.80617 15.3888 7.66402 15.5531 8.59743L12.1492 4.82261ZM12.1492 1C13.8979 1.21544 15.5286 2.08388 16.7735 3.46272C18.0184 4.84157 18.8035 6.64887 19 8.58788L12.1492 1ZM18.1383 16.214V19.0809C18.1392 19.3471 18.0901 19.6105 17.9939 19.8544C17.8978 20.0983 17.7568 20.3172 17.5799 20.4971C17.4031 20.677 17.1943 20.814 16.967 20.8993C16.7396 20.9845 16.4987 21.0162 16.2597 20.9922C13.608 20.6727 11.0608 19.6678 8.82292 18.0584C6.74082 16.5911 4.97557 14.6335 3.65252 12.3245C2.19617 9.83138 1.28985 6.99289 1.00699 4.03897C0.98546 3.7747 1.01378 3.50836 1.09015 3.25689C1.16652 3.00543 1.28927 2.77435 1.45059 2.57838C1.6119 2.3824 1.80824 2.22582 2.02711 2.11861C2.24598 2.0114 2.48258 1.9559 2.72185 1.95565H5.30705C5.72525 1.95109 6.13069 2.11532 6.44778 2.41774C6.76487 2.72016 6.97198 3.14013 7.03051 3.59937C7.13963 4.51686 7.34199 5.41772 7.63373 6.28476C7.74967 6.62681 7.77476 6.99855 7.70603 7.35593C7.63731 7.71331 7.47764 8.04135 7.24595 8.30118L6.15155 9.51486C7.37827 11.9074 9.16456 13.8883 11.322 15.2488L12.4164 14.0351C12.6506 13.7782 12.9465 13.6011 13.2687 13.5249C13.591 13.4486 13.9262 13.4765 14.2346 13.6051C15.0164 13.9286 15.8288 14.153 16.6561 14.274C17.0747 14.3395 17.457 14.5733 17.7303 14.931C18.0035 15.2887 18.1488 15.7453 18.1383 16.214Z" stroke="white" stroke-opacity="0.8" stroke-width="2" stroke-linecap="round" stroke-linejoin="round"/>
</svg>
