<svg width="41" height="38" viewBox="0 0 41 38" fill="none" xmlns="http://www.w3.org/2000/svg">
<path d="M21.9089 25.0773C20.6409 25.0773 19.5137 24.4486 18.9502 23.331C18.7388 22.9817 18.8797 22.5626 19.2319 22.3531C19.5842 22.1435 20.0069 22.2832 20.2182 22.6325C20.5704 23.2611 21.2749 23.6803 21.9794 23.6803C23.1065 23.6803 24.0223 22.7722 24.0223 21.6545C24.0223 20.5369 23.1065 19.6288 21.9794 19.6288C20.0773 19.6288 18.5275 18.092 18.5275 16.206C18.5275 14.32 20.0773 12.7832 21.9794 12.7832C23.177 12.7832 24.3041 13.4119 24.9381 14.4597C25.1495 14.8089 25.0086 15.2281 24.6563 15.4376C24.3041 15.6472 23.8814 15.5075 23.6701 15.1582C23.3179 14.5295 22.6134 14.1803 21.9089 14.1803C20.7818 14.1803 19.866 15.0884 19.866 16.206C19.866 17.3236 20.7818 18.2317 21.9089 18.2317C23.811 18.2317 25.3608 19.7685 25.3608 21.6545C25.3608 23.5406 23.811 25.0773 21.9089 25.0773Z" fill="#F27F0C"/>
<path d="M21.9089 26.3347C21.5567 26.3347 21.2045 26.0553 21.2045 25.6362V21.7244C21.2045 21.3751 21.4863 21.0259 21.9089 21.0259C22.3316 21.0259 22.6134 21.3053 22.6134 21.7244V25.6362C22.6134 26.0553 22.3316 26.3347 21.9089 26.3347Z" fill="#F27F0C"/>
<path d="M21.9089 16.6251C21.5567 16.6251 21.2045 16.3457 21.2045 15.9266V12.3641C21.2045 12.0148 21.4863 11.6655 21.9089 11.6655C22.3316 11.6655 22.6134 11.9449 22.6134 12.3641V15.9266C22.6134 16.3457 22.3316 16.6251 21.9089 16.6251Z" fill="#F27F0C"/>
<path d="M21.9089 28.4301C16.6959 28.4301 12.3986 24.1691 12.3986 19C12.3986 13.8309 16.6959 9.56982 21.9089 9.56982C27.122 9.56982 31.4192 13.8309 31.4192 19C31.4192 24.1691 27.1924 28.4301 21.9089 28.4301ZM21.9089 10.9669C17.4708 10.9669 13.8076 14.5992 13.8076 19C13.8076 23.4007 17.4708 27.0331 21.9089 27.0331C26.3471 27.0331 30.0103 23.4007 30.0103 19C30.0103 14.5992 26.4175 10.9669 21.9089 10.9669Z" fill="#F27F0C"/>
<path d="M7.18555 14.3897C7.11511 14.3897 7.04466 14.3897 6.97421 14.3198C6.62198 14.1801 6.41064 13.761 6.55153 13.4118C8.03091 9.43014 11.1306 6.0772 15.0051 4.33088C15.3574 4.19117 15.7801 4.33088 15.9209 4.68014C16.0618 5.02941 15.9209 5.44853 15.5687 5.58823C11.9759 7.2647 9.22851 10.2684 7.81957 13.9007C7.74913 14.1801 7.46734 14.3897 7.18555 14.3897Z" fill="#F27F0C"/>
<path d="M21.8385 37.9998C13.1031 37.9998 5.63573 31.9925 3.80412 23.5403H0.70446C0.422673 23.5403 0.140886 23.3307 0.0704391 23.1212C-7.60332e-06 22.8417 0.0704391 22.5623 0.281779 22.3528L5.35394 17.952C5.63573 17.7425 5.98796 17.7425 6.26975 17.952L11.2715 22.3528C11.4828 22.5623 11.5533 22.8417 11.4828 23.1212C11.4124 23.4006 11.1306 23.5403 10.8488 23.5403H8.24226C9.93298 29.5476 15.4983 33.8087 21.8385 33.8087C30.0807 33.8087 36.7732 27.1726 36.7732 18.9998C36.7732 10.827 30.0807 4.191 21.8385 4.191C21.4862 4.191 21.134 3.91159 21.134 3.49247C21.134 3.07336 21.4158 2.79395 21.8385 2.79395C30.8557 2.79395 38.1821 10.0587 38.1821 18.9998C38.1821 27.941 30.8557 35.2057 21.8385 35.2057C14.5825 35.2057 8.10137 30.1064 6.55154 23.0513C6.48109 22.8417 6.55154 22.6322 6.69243 22.4925C6.83333 22.3528 7.04467 22.2131 7.25601 22.2131H8.94673L5.77662 19.4189L2.60652 22.2131H4.43814C4.79037 22.2131 5.07216 22.4226 5.1426 22.7719C6.55154 30.805 13.5962 36.6028 21.8385 36.6028C31.6306 36.6028 39.5911 28.7094 39.5911 18.9998C39.5911 17.1138 39.3093 15.2976 38.6753 13.4814C38.5344 13.1322 38.7457 12.7131 39.0979 12.5734C39.4502 12.4337 39.8728 12.6432 40.0137 12.9925C40.6478 14.8785 40.9295 16.9042 40.9295 18.93C41 29.4778 32.4055 37.9998 21.8385 37.9998Z" fill="#F27F0C"/>
<path d="M4.0859 14.8088C4.01545 14.8088 3.94501 14.8088 3.87456 14.8088C3.52233 14.6691 3.31099 14.25 3.38143 13.9007C5.70617 5.72794 13.3144 0 21.8385 0C27.6856 0 33.1804 2.65441 36.8436 7.19485C37.055 7.47427 37.055 7.96324 36.7027 8.17279C36.4209 8.38235 35.9278 8.38235 35.7165 8.03309C32.4055 3.84191 27.3333 1.39706 21.8385 1.39706C13.9484 1.39706 6.90377 6.70588 4.71992 14.25C4.64947 14.5993 4.36769 14.8088 4.0859 14.8088Z" fill="#F27F0C"/>
</svg>
