<svg width="15" height="12" viewBox="0 0 15 12" fill="none" xmlns="http://www.w3.org/2000/svg">
<path d="M14.3292 1.29628C13.8236 1.51752 13.2863 1.67554 12.7174 1.73875C13.2863 1.3911 13.7287 0.853817 13.95 0.190117C13.4127 0.506165 12.8122 0.727398 12.1801 0.853817C11.6744 0.348141 10.9475 0.000488281 10.1574 0.000488281C8.60877 0.000488281 7.37618 1.23307 7.37618 2.78171C7.37618 3.00294 7.40779 3.22418 7.43939 3.4138C5.13224 3.28739 3.07793 2.18122 1.71893 0.506165C1.46609 0.917027 1.33967 1.3911 1.33967 1.89678C1.33967 2.87652 1.84535 3.69825 2.57226 4.20392C2.12979 4.20392 1.68732 4.0775 1.30806 3.85627V3.88788C1.30806 5.24688 2.25621 6.35305 3.552 6.60589C3.33077 6.6691 3.07793 6.7007 2.82509 6.7007C2.63546 6.7007 2.47744 6.6691 2.28781 6.63749C2.63546 7.74366 3.67842 8.53378 4.8794 8.56538C3.93126 9.3555 2.73028 9.79797 1.43448 9.79797C1.21325 9.79797 0.992016 9.79797 0.770782 9.76637C2.00337 10.5565 3.45719 11.0306 5.03743 11.0306C10.1574 11.0306 12.9386 6.79552 12.9386 3.12936C12.9386 3.00294 12.9386 2.87652 12.9386 2.78171C13.4759 2.33924 13.95 1.86517 14.3292 1.29628Z" fill="white"/>
</svg>
